<?xml version="1.0" encoding="UTF-8" standalone="no"?>
<!-- Created with Inkscape (http://www.inkscape.org/) -->

<svg
   xmlns:dc="http://purl.org/dc/elements/1.1/"
   xmlns:cc="http://creativecommons.org/ns#"
   xmlns:rdf="http://www.w3.org/1999/02/22-rdf-syntax-ns#"
   xmlns:svg="http://www.w3.org/2000/svg"
   xmlns="http://www.w3.org/2000/svg"
   xmlns:sodipodi="http://sodipodi.sourceforge.net/DTD/sodipodi-0.dtd"
   xmlns:inkscape="http://www.inkscape.org/namespaces/inkscape"
   width="91.919777mm"
   height="38.475891mm"
   viewBox="0 0 325.7 136.3319"
   id="svg4161"
   version="1.1"
   inkscape:version="0.91 r13725"
   sodipodi:docname="manchester_siam1.svg">
  <defs
     id="defs4163" />
  <sodipodi:namedview
     id="base"
     pagecolor="#ffffff"
     bordercolor="#666666"
     borderopacity="1.0"
     inkscape:pageopacity="0.0"
     inkscape:pageshadow="2"
     inkscape:zoom="2.8"
     inkscape:cx="224.18683"
     inkscape:cy="73.090514"
     inkscape:document-units="px"
     inkscape:current-layer="layer1"
     showgrid="false"
     fit-margin-top="0"
     fit-margin-left="0"
     fit-margin-right="0"
     fit-margin-bottom="0"
     inkscape:window-width="1920"
     inkscape:window-height="1043"
     inkscape:window-x="1366"
     inkscape:window-y="0"
     inkscape:window-maximized="1" />
  <metadata
     id="metadata4166">
    <rdf:RDF>
      <cc:Work
         rdf:about="">
        <dc:format>image/svg+xml</dc:format>
        <dc:type
           rdf:resource="http://purl.org/dc/dcmitype/StillImage" />
        <dc:title></dc:title>
      </cc:Work>
    </rdf:RDF>
  </metadata>
  <g
     inkscape:label="Layer 1"
     inkscape:groupmode="layer"
     id="layer1"
     transform="translate(-155.34805,-640.47668)">
    <path
       id="path7"
       d="m 157.22502,743.54446 0,4.08549 61.06772,0 c 3.40458,0 5.2224,-0.90993 5.2224,-4.08549 l 0,-0.22698 0,0.22698 c 0.22493,3.17556 2.04275,4.08549 5.44937,4.08549 l 40.63617,0 c 3.40662,0 5.22239,-0.90993 5.22239,-4.08549 l 0,-0.22698 0,0.22698 c 0,3.17556 1.81578,4.08549 5.22241,4.08549 l 54.02955,0 c 3.40457,0 4.99337,-0.90993 5.22239,-4.08549 l 0,-0.22698 0,0.22698 c 0,3.17556 1.81578,4.08549 5.22036,4.08549 l 31.78426,0 c 2.49669,0 4.99337,-1.81782 5.67429,-4.08549 0.45394,-0.68296 0.45394,-1.5929 0.45394,-2.27177 l 0,-52.66772 9.3079,0 c 3.40459,0 6.13029,2.72571 6.13029,6.35521 l 0,48.58428 0,4.08549 15.20917,0 0,-4.08549 0,-54.93949 8.39797,0 c 3.40661,0 6.35725,2.72571 6.35725,6.35521 l 0,46.31046 c 0,0.67888 0,1.58881 0.45394,2.27177 0.90585,2.26768 3.17966,4.0855 5.6743,4.0855 l 46.08553,0 0,-4.0855 0,-10.89875 -30.87431,-0.22696 c -3.40663,0 -6.35726,-2.72367 -6.35726,-6.12619 l 0,-46.54154 c 0,-3.40457 -2.72367,-6.13028 -6.1303,-6.13028 l -19.2967,-0.22698 c -3.63155,0 -5.2224,3.85853 -5.2224,3.85853 0,-3.40459 -1.81577,-3.85853 -5.2224,-3.85853 l -19.2967,0.22698 c -2.94859,0 -5.2224,2.95063 -5.2224,2.95063 l 0,-3.17761 -14.9822,0 0,52.89674 c 0,3.40254 -2.72367,6.1262 -6.35522,6.1262 l -15.43817,0 c -3.40663,0 -6.1303,-2.72366 -6.1303,-6.1262 l 0,-46.54152 c 0,-3.40459 -2.94859,-6.1303 -6.35521,-6.1303 l -51.75983,-0.22696 0,15.20917 36.77763,0 c 3.40458,0 6.35522,2.72571 6.35522,6.35521 l 0,1.58881 c 0,3.40867 -3.17761,6.3593 -6.58423,6.3593 l -36.77559,0 c -3.63156,0 -6.35727,2.72366 -6.35727,6.12619 l 0,17.02903 c 0,3.62951 -2.72571,6.35318 -6.35521,6.35318 l -6.35727,0 c -3.40456,0 -6.13027,-2.72367 -6.13027,-6.1262 l 0,-52.89673 -15.20918,0 0,52.89673 c 0,3.40253 -2.7257,6.1262 -6.13028,6.1262 l -11.12367,0 0,-23.38425 c 0,-3.40253 -2.72571,-6.12619 -6.1303,-6.12619 l -38.82038,0 c -3.40663,0 -6.35725,-2.95064 -6.35725,-6.35932 l 0,-1.5888 c 0,-3.63154 2.95267,-6.35521 6.35725,-6.35521 l 44.94864,0 0,-15.20916 -59.93493,0.22696 c -3.40456,0 -6.35521,2.72571 -6.35521,6.1303 l 0,0.45394 0,0 0,32.69215 c 0,0 0.45394,2.26766 1.58881,3.40252 0.90789,0.90994 3.63154,1.58881 3.63154,1.58881 l 39.95525,0 c 3.40458,0 6.12825,2.95064 6.12825,6.35726 l 0,1.81781 c 0,3.62951 -2.72367,6.35318 -6.12825,6.35318 l -45.17764,0 0,11.1339 0.006,0 z m 138.93547,-25.65602 22.02241,0 c 3.40458,0 6.35522,2.72367 6.35522,6.35727 l 0,2.0448 c 0,3.40252 -2.95064,6.12619 -6.35522,6.12619 l -22.02241,0 c -3.63156,0 -6.35521,-2.72367 -6.35521,-6.12619 l 0,-2.0448 c -0.002,-3.6336 2.72161,-6.35727 6.35521,-6.35727 z m -60.15984,-77.41176 23.83819,0 -3.86057,21.79545 -15.20918,0 -4.76844,-21.79545 z"
       inkscape:connector-curvature="0"
       style="clip-rule:evenodd;fill:#737373;fill-opacity:1;fill-rule:evenodd"
       sodipodi:nodetypes="ccssccssscsssccssscscsscccccssscsccccssccccccccssssscccssssssssssccsscsssssscccscccccsssscccccssssssccccccccc" />
    <polyline
       transform="translate(155.34805,639.10858)"
       style="fill:#6b2c90;fill-opacity:1"
       points="7.5,114.3 7.5,130.8 5.5,130.8 5.5,114.3 0,114.3 0,112.5 13,112.5 13,114.3 7.5,114.3 "
       id="polyline9-1" />
    <path
       inkscape:connector-curvature="0"
       style="fill:#6b2c90;fill-opacity:1"
       d="m 179.44805,769.90858 0,-8.7 c 0,-2.1 -0.6,-3.3 -2.5,-3.3 -2.4,0 -4.1,2.4 -4.1,5.6 l 0,6.5 -2,0 0,-19.7 2,0 0,6.6 c 0,0.9 -0.1,2 -0.2,2.7 l 0.1,0 c 0.8,-2 2.5,-3.2 4.8,-3.2 3.1,0 4,1.9 4,4.3 l 0,9.4 -2.1,0"
       id="path11-7" />
    <path
       inkscape:connector-curvature="0"
       style="fill:#6b2c90;fill-opacity:1"
       d="m 190.34805,757.80858 c -1.9,0 -3.2,1.4 -3.6,3.5 l 6.8,0 c 0.1,-2.1 -1.1,-3.5 -3.2,-3.5 m 5.3,5 -9,0 c -0.1,4 1.5,5.7 4.5,5.7 1.4,0 2.9,-0.4 3.9,-0.9 l 0.2,1.7 c -1.2,0.5 -2.8,0.8 -4.4,0.8 -4.1,0 -6.2,-2.2 -6.2,-6.9 0,-4 2.2,-7 5.9,-7 3.7,0 5.2,2.6 5.2,5.5 0,0.3 0,0.7 -0.1,1.1 z"
       id="path13-1" />
    <path
       inkscape:connector-curvature="0"
       style="fill:#6b2c90;fill-opacity:1"
       d="m 211.04805,770.10858 c -5.7,0 -6.7,-3.2 -6.7,-6.3 l 0,-12.2 2.1,0 0,12 c 0,2.6 0.9,4.8 4.8,4.8 3.4,0 5,-1.4 5,-5.3 l 0,-11.5 2,0 0,11.3 c 0,4.8 -2.4,7.2 -7.2,7.2"
       id="path15-9" />
    <path
       inkscape:connector-curvature="0"
       style="fill:#6b2c90;fill-opacity:1"
       d="m 230.84805,769.90858 0,-8.7 c 0,-2.1 -0.6,-3.3 -2.5,-3.3 -2.4,0 -4.1,2.4 -4.1,5.6 l 0,6.5 -2,0 0,-13.4 2,0 c 0,0.9 -0.1,2.2 -0.2,3 l 0.1,0 c 0.8,-1.9 2.5,-3.3 4.8,-3.3 3.1,0 4,1.9 4,4.3 l 0,9.4 -2.1,0"
       id="path17-5" />
    <path
       inkscape:connector-curvature="0"
       style="fill:#6b2c90;fill-opacity:1"
       d="m 236.74805,769.90858 0,-13.4 2,0 0,13.4 -2,0 m 1,-15.9 c -0.8,0 -1.4,-0.6 -1.4,-1.4 0,-0.8 0.6,-1.4 1.4,-1.4 0.8,0 1.4,0.6 1.4,1.4 0.1,0.8 -0.6,1.4 -1.4,1.4 z"
       id="path19-7" />
    <path
       inkscape:connector-curvature="0"
       style="fill:#6b2c90;fill-opacity:1"
       d="m 248.14805,769.90858 -2.1,0 -5.1,-13.4 2.3,0 3.1,8.8 c 0.3,0.8 0.5,1.6 0.8,2.4 l 0,0 c 0.2,-0.7 0.5,-1.5 0.7,-2.3 l 3.2,-8.9 2.3,0 -5.2,13.4"
       id="path21-5" />
    <path
       inkscape:connector-curvature="0"
       style="fill:#6b2c90;fill-opacity:1"
       d="m 259.64805,757.80858 c -1.9,0 -3.2,1.4 -3.6,3.5 l 6.8,0 c 0.1,-2.1 -1.1,-3.5 -3.2,-3.5 m 5.3,5 -9,0 c -0.1,4 1.5,5.7 4.5,5.7 1.4,0 2.9,-0.4 3.9,-0.9 l 0.2,1.7 c -1.2,0.5 -2.8,0.8 -4.4,0.8 -4.1,0 -6.2,-2.2 -6.2,-6.9 0,-4 2.2,-7 5.9,-7 3.7,0 5.2,2.6 5.2,5.5 0,0.3 0,0.7 -0.1,1.1 z"
       id="path23-7" />
    <path
       inkscape:connector-curvature="0"
       style="fill:#6b2c90;fill-opacity:1"
       d="m 274.64805,758.20858 c -3,-0.5 -4.4,1.8 -4.4,6.3 l 0,5.4 -2,0 0,-13.4 2,0 c 0,0.9 -0.1,2.2 -0.3,3.4 l 0,0 c 0.5,-2 1.9,-4 4.8,-3.7 l -0.1,2"
       id="path25-2" />
    <path
       inkscape:connector-curvature="0"
       style="fill:#6b2c90;fill-opacity:1"
       d="m 279.34805,770.10858 c -1,0 -2,-0.1 -2.8,-0.3 l 0.1,-1.9 c 0.9,0.2 1.9,0.4 3,0.4 1.9,0 3.3,-0.9 3.3,-2.3 0,-3.2 -6.5,-1.2 -6.5,-6 0,-2.2 1.8,-3.9 5.2,-3.9 0.8,0 1.8,0.1 2.6,0.3 l -0.1,1.8 c -0.9,-0.3 -1.9,-0.5 -2.8,-0.5 -2,0 -2.9,0.8 -2.9,2.1 0,3.2 6.6,1.4 6.6,6 -0.1,2.5 -2.2,4.3 -5.7,4.3"
       id="path27-3" />
    <path
       inkscape:connector-curvature="0"
       style="fill:#6b2c90;fill-opacity:1"
       d="m 288.04805,769.90858 0,-13.4 2,0 0,13.4 -2,0 m 1.1,-15.9 c -0.8,0 -1.4,-0.6 -1.4,-1.4 0,-0.8 0.6,-1.4 1.4,-1.4 0.8,0 1.4,0.6 1.4,1.4 0,0.8 -0.7,1.4 -1.4,1.4 z"
       id="path29-3" />
    <path
       inkscape:connector-curvature="0"
       style="fill:#6b2c90;fill-opacity:1"
       d="m 298.44805,770.10858 c -2.7,0 -3.5,-1.2 -3.5,-4 l 0,-8 -2.9,0 0,-1.6 2.9,0 0,-4.5 2,-0.6 0,5 3.9,0 0,1.6 -3.9,0 0,7.2 c 0,2.4 0.4,3 2,3 0.7,0 1.4,-0.1 1.9,-0.2 l 0,1.8 c -0.6,0.2 -1.5,0.3 -2.4,0.3"
       id="path31-8" />
    <path
       inkscape:connector-curvature="0"
       style="fill:#6b2c90;fill-opacity:1"
       d="m 308.34805,771.30858 c -1.6,4.1 -2.8,5.5 -5.7,5.5 -0.5,0 -1.2,-0.1 -1.7,-0.1 l 0.2,-1.9 c 0.5,0.2 1.1,0.3 1.7,0.3 1.6,0 2.4,-0.8 3.5,-3.6 l 0.6,-1.6 -5.1,-13.4 2.3,0 2.8,7.7 c 0.4,1.2 0.7,2.2 1,3.2 l 0,0 c 0.2,-0.9 0.8,-2.5 1.4,-4.1 l 2.4,-6.8 2.2,0 -5.6,14.8"
       id="path33-8" />
    <path
       inkscape:connector-curvature="0"
       style="fill:#6b2c90;fill-opacity:1"
       d="m 326.44805,757.90858 c -2.1,0 -4.1,1.6 -4.1,5.2 0,3.4 1.5,5.3 4.1,5.3 2.1,0 4,-1.6 4,-5.3 0,-3.3 -1.4,-5.2 -4,-5.2 m -0.3,12.2 c -3.6,0 -5.9,-2.2 -5.9,-6.9 0,-3.8 2.4,-7 6.4,-7 3.3,0 6,1.8 6,6.7 -0.1,4.1 -2.6,7.2 -6.5,7.2 z"
       id="path35-0" />
    <path
       inkscape:connector-curvature="0"
       style="fill:#6b2c90;fill-opacity:1"
       d="m 343.44805,752.00858 c -0.7,-0.2 -1.4,-0.3 -2.1,-0.3 -2.1,0 -3,1.2 -3,3.8 l 0,1 4,0 0,1.6 -4,0 0,11.8 -2,0 0,-11.8 -2.9,0 0,-1.6 2.9,0 0,-0.9 c 0,-3.8 1.9,-5.5 5.1,-5.5 0.8,0 1.5,0.1 2.2,0.2 l -0.2,1.7"
       id="path37-8" />
    <path
       inkscape:connector-curvature="0"
       style="fill:#6b2c90;fill-opacity:1"
       d="m 367.84805,769.90858 -1.6,-11.3 c -0.3,-2.2 -0.5,-3.6 -0.6,-4.6 l -0.1,0 c -0.2,0.8 -0.5,1.8 -0.9,3.1 l -4.3,12.8 -2.4,0 -4.1,-12 c -0.5,-1.3 -0.9,-2.8 -1.2,-3.9 l 0,0 c -0.1,1.5 -0.3,2.9 -0.5,4.8 l -1.3,11 -2.1,0 2.6,-18.3 2.6,0 4.2,12.3 c 0.5,1.3 0.8,2.5 1,3.5 l 0.1,0 c 0.3,-1.2 0.5,-2.1 1,-3.4 l 4.3,-12.5 2.7,0 2.7,18.3 -2.1,0"
       id="path39-3" />
    <path
       inkscape:connector-curvature="0"
       style="fill:#6b2c90;fill-opacity:1"
       d="m 380.54805,763.60858 c -5.1,0 -6.1,1.6 -6.1,2.9 0,1.2 0.9,2 2.2,2 2.4,0 3.9,-2.4 3.9,-4.7 l 0,-0.2 m 0.1,6.3 c 0,-1 0,-2.1 0.1,-2.8 l -0.1,0 c -0.6,1.7 -2.4,3.1 -4.7,3.1 -2.1,0 -3.7,-1.1 -3.7,-3.3 0,-2.8 2.9,-4.8 8.2,-4.8 l 0,-1.1 c 0,-2 -0.7,-3.2 -3.1,-3.2 -1.3,0 -2.9,0.4 -4.1,1.2 l -0.2,-1.8 c 1.3,-0.6 2.8,-1 4.7,-1 3.7,0 4.8,1.8 4.8,4.4 l 0,5.3 c 0,1.3 0,2.8 0.1,4 l -2,0 z"
       id="path41-5" />
    <path
       inkscape:connector-curvature="0"
       style="fill:#6b2c90;fill-opacity:1"
       d="m 395.14805,769.90858 0,-8.7 c 0,-2.1 -0.6,-3.3 -2.5,-3.3 -2.4,0 -4.1,2.4 -4.1,5.6 l 0,6.5 -2,0 0,-13.4 2,0 c 0,0.9 -0.1,2.2 -0.2,3 l 0.1,0 c 0.8,-1.9 2.5,-3.3 4.8,-3.3 3.1,0 4,1.9 4,4.3 l 0,9.4 -2.1,0"
       id="path43-5" />
    <path
       inkscape:connector-curvature="0"
       style="fill:#6b2c90;fill-opacity:1"
       d="m 406.04805,770.10858 c -3,0 -5.8,-1.3 -5.8,-6.4 0,-4.4 2.2,-7.4 6.6,-7.4 1.1,0 2.2,0.2 3.2,0.5 l -0.2,1.8 c -0.9,-0.4 -1.9,-0.6 -3.1,-0.6 -2.9,0 -4.3,2.1 -4.3,5.4 0,2.8 0.9,5 4.1,5 1.2,0 2.5,-0.3 3.4,-0.8 l 0.2,1.8 c -1,0.3 -2.4,0.7 -4.1,0.7"
       id="path45-8" />
    <path
       inkscape:connector-curvature="0"
       style="fill:#6b2c90;fill-opacity:1"
       d="m 421.54805,769.90858 0,-8.7 c 0,-2.1 -0.6,-3.3 -2.5,-3.3 -2.4,0 -4.1,2.4 -4.1,5.6 l 0,6.5 -2,0 0,-19.7 2,0 0,6.6 c 0,0.9 -0.1,2 -0.2,2.7 l 0.1,0 c 0.8,-2 2.5,-3.2 4.8,-3.2 3.1,0 4,1.9 4,4.3 l 0,9.4 -2.1,0"
       id="path47-6" />
    <path
       inkscape:connector-curvature="0"
       style="fill:#6b2c90;fill-opacity:1"
       d="m 432.44805,757.80858 c -1.9,0 -3.2,1.4 -3.6,3.5 l 6.8,0 c 0.1,-2.1 -1.1,-3.5 -3.2,-3.5 m 5.3,5 -9,0 c -0.1,4 1.5,5.7 4.5,5.7 1.4,0 2.9,-0.4 3.9,-0.9 l 0.2,1.7 c -1.2,0.5 -2.8,0.8 -4.4,0.8 -4.1,0 -6.2,-2.2 -6.2,-6.9 0,-4 2.2,-7 5.9,-7 3.7,0 5.2,2.6 5.2,5.5 0,0.3 0,0.7 -0.1,1.1 z"
       id="path49-2" />
    <path
       inkscape:connector-curvature="0"
       style="fill:#6b2c90;fill-opacity:1"
       d="m 443.14805,770.10858 c -1,0 -2,-0.1 -2.8,-0.3 l 0.1,-1.9 c 0.9,0.2 1.9,0.4 3,0.4 1.9,0 3.3,-0.9 3.3,-2.3 0,-3.2 -6.5,-1.2 -6.5,-6 0,-2.2 1.8,-3.9 5.2,-3.9 0.8,0 1.8,0.1 2.6,0.3 l -0.1,1.8 c -0.9,-0.3 -1.9,-0.5 -2.8,-0.5 -2,0 -2.9,0.8 -2.9,2.1 0,3.2 6.6,1.4 6.6,6 -0.1,2.5 -2.2,4.3 -5.7,4.3"
       id="path51-9" />
    <path
       inkscape:connector-curvature="0"
       style="fill:#6b2c90;fill-opacity:1"
       d="m 456.14805,770.10858 c -2.7,0 -3.5,-1.2 -3.5,-4 l 0,-8 -2.9,0 0,-1.6 2.9,0 0,-4.5 2,-0.6 0,5 3.9,0 0,1.6 -3.9,0 0,7.2 c 0,2.4 0.4,3 2,3 0.7,0 1.4,-0.1 1.9,-0.2 l 0,1.8 c -0.6,0.2 -1.6,0.3 -2.4,0.3"
       id="path53-9" />
    <path
       inkscape:connector-curvature="0"
       style="fill:#6b2c90;fill-opacity:1"
       d="m 466.14805,757.80858 c -1.9,0 -3.2,1.4 -3.6,3.5 l 6.8,0 c 0.1,-2.1 -1.2,-3.5 -3.2,-3.5 m 5.3,5 -9,0 c -0.1,4 1.5,5.7 4.5,5.7 1.4,0 2.9,-0.4 3.9,-0.9 l 0.2,1.7 c -1.2,0.5 -2.8,0.8 -4.4,0.8 -4.1,0 -6.2,-2.2 -6.2,-6.9 0,-4 2.2,-7 5.9,-7 3.7,0 5.2,2.6 5.2,5.5 -0.1,0.3 -0.1,0.7 -0.1,1.1 z"
       id="path55-1" />
    <path
       inkscape:connector-curvature="0"
       style="fill:#6b2c90;fill-opacity:1"
       d="m 480.94805,758.20858 c -3,-0.5 -4.4,1.8 -4.4,6.3 l 0,5.4 -2,0 0,-13.4 2,0 c 0,0.9 -0.1,2.2 -0.3,3.4 l 0,0 c 0.5,-2 1.9,-4 4.8,-3.7 l -0.1,2"
       id="path57-6" />
    <text
       xml:space="preserve"
       style="font-style:normal;font-weight:normal;font-size:40px;line-height:125%;font-family:sans-serif;letter-spacing:0px;word-spacing:0px;fill:#000000;fill-opacity:1;stroke:none;stroke-width:1px;stroke-linecap:butt;stroke-linejoin:miter;stroke-opacity:1"
       x="175.35715"
       y="827.36218"
       id="text4786"
       sodipodi:linespacing="125%"><tspan
         sodipodi:role="line"
         id="tspan4788"
         x="175.35715"
         y="827.36218" /></text>
  </g>
</svg>
